<svg id="eaf1447d-3ae4-4c62-b54e-c86649f2d959" data-name="AJOUTER" xmlns="http://www.w3.org/2000/svg" viewBox="0 0 33.83 33.83"><title>ajouter_w</title><path d="M29.34,12.6H21.42l0-8.1a4.38,4.38,0,0,0-1.51-3.26A4.19,4.19,0,0,0,17,.09a4.36,4.36,0,0,0-4.46,4.46l0,8H4.52A4.37,4.37,0,0,0,1.25,14,4.2,4.2,0,0,0,.1,16.92,4.36,4.36,0,0,0,4.54,21.4h8.11l0,8.06a4.49,4.49,0,0,0,1.43,3.33,4.27,4.27,0,0,0,3,1.13,4.53,4.53,0,0,0,4.31-4.6l0-7.93h8A4.47,4.47,0,0,0,32.77,20a4.23,4.23,0,0,0,1.15-3A4.53,4.53,0,0,0,29.34,12.6Zm.08,6.72-8,0h-.32a1.9,1.9,0,0,0-1.91,1.9v8.24A2.2,2.2,0,0,1,17,31.58a2.42,2.42,0,0,1-2.23-2.16V21.15a1.9,1.9,0,0,0-1.89-1.9h-.22l-8.12,0A2.2,2.2,0,0,1,2.37,17a2.3,2.3,0,0,1,2.17-2.22l8.07,0h.22a1.89,1.89,0,0,0,1.91-1.9V4.52A2.22,2.22,0,0,1,17,2.36,2.3,2.3,0,0,1,19.2,4.52v8.4a1.9,1.9,0,0,0,1.89,1.9h.34l8,0a2.21,2.21,0,0,1,2.15,2.24A2.42,2.42,0,0,1,29.42,19.32Z" transform="translate(-0.1 -0.09)" style="fill:#fff"/></svg>