<svg id="a5e8734a-083b-4a7b-a8de-54b10c78f8c0" data-name="MODIFIER" xmlns="http://www.w3.org/2000/svg" viewBox="0 0 28.91 31.11"><title>modifier</title><path d="M30.52,2a4.43,4.43,0,0,0-3-1.1,4.37,4.37,0,0,0-3.3,1.4L6.07,22.22A5.48,5.48,0,0,0,4.9,24.31l-1.72,5.9a1.43,1.43,0,0,0,1.94,1.72L11,29.4a4.92,4.92,0,0,0,1.67-1.19L30.82,8.34A4.36,4.36,0,0,0,30.52,2ZM6.22,29.51a.31.31,0,0,1-.44-.38l1.42-4a.64.64,0,0,1,1-.28l1.89,1.54a.64.64,0,0,1-.1,1.06ZM29.12,6.84l-16.36,18a.64.64,0,0,1-.88.07L11,24.18,9.48,23a.65.65,0,0,1-.09-.94c3-3.39,16.53-18.21,16.53-18.21a2.3,2.3,0,0,1,3.1-.1,2.13,2.13,0,0,1,.7,1.5A2.27,2.27,0,0,1,29.12,6.84Z" transform="translate(-3.12 -0.94)" style="fill:#010002"/></svg>