<svg id="a8321976-7e5c-4094-94a4-af7127a4da62" data-name="SUPPRIMER" xmlns="http://www.w3.org/2000/svg" viewBox="0 0 28.27 30.12"><title>supprimer</title><path d="M30,24.94l-7.34-8v-.09l7.34-8a4.1,4.1,0,0,0-.28-5.93,4.19,4.19,0,0,0-2.83-1,4.1,4.1,0,0,0-3.1,1.32l-6.87,7.53L10.13,3.2A4.1,4.1,0,0,0,7,1.88a3.94,3.94,0,0,0-2.73,1A4.11,4.11,0,0,0,4,8.85l7.34,8v.09L4,24.94a4.1,4.1,0,0,0,.28,5.93,4.19,4.19,0,0,0,2.83,1,4.1,4.1,0,0,0,3.1-1.32l6.87-7.53L24,30.59A4.17,4.17,0,0,0,27.07,32a4,4,0,0,0,2.83-1.13A4.26,4.26,0,0,0,30,24.94ZM28.3,29.36a2.28,2.28,0,0,1-2.92-.09l-6.87-7.53A1.88,1.88,0,0,0,17,21.08a2.23,2.23,0,0,0-1.51.66L8.62,29.27a2.19,2.19,0,0,1-1.5.66,2.3,2.3,0,0,1-1.41-.47,2,2,0,0,1-.1-2.92l7.34-8a2.27,2.27,0,0,0,0-3L5.52,7.43a2.06,2.06,0,0,1,.19-2.91,2.15,2.15,0,0,1,2.91.09l6.87,7.53a2.11,2.11,0,0,0,3,0l6.87-7.53a2.17,2.17,0,0,1,2.92-.09A2,2,0,0,1,29,5.93a2.1,2.1,0,0,1-.56,1.5l-7.25,8a2.31,2.31,0,0,0,0,3l7.34,8A2.07,2.07,0,0,1,28.3,29.36Z" transform="translate(-2.88 -1.88)" style="fill:#010002"/></svg>